<?xml version="1.0" standalone="no"?>
<!DOCTYPE svg PUBLIC "-//W3C//DTD SVG 20010904//EN"
 "http://www.w3.org/TR/2001/REC-SVG-20010904/DTD/svg10.dtd">
<svg version="1.0" xmlns="http://www.w3.org/2000/svg"
 width="256.000000pt" height="256.000000pt" viewBox="0 0 256.000000 256.000000"
 preserveAspectRatio="xMidYMid meet">

<g transform="translate(0.000000,256.000000) scale(0.100000,-0.100000)"
fill="#000000" stroke="none">
<path d="M360 1720 c0 -33 -3 -40 -20 -40 -18 0 -20 -7 -20 -60 0 -53 2 -60
20 -60 19 0 20 -7 20 -120 0 -113 1 -120 20 -120 19 0 20 7 20 120 0 113 -1
120 -20 120 -18 0 -20 7 -20 60 0 53 2 60 20 60 17 0 20 7 20 40 0 33 -3 40
-20 40 -17 0 -20 -7 -20 -40z"/>
<path d="M800 1720 c0 -33 -3 -40 -20 -40 -18 0 -20 -7 -20 -60 0 -53 2 -60
20 -60 19 0 20 -7 20 -120 0 -113 1 -120 20 -120 19 0 20 7 20 120 0 113 -1
120 -20 120 -18 0 -20 7 -20 60 0 53 2 60 20 60 17 0 20 7 20 40 0 33 -3 40
-20 40 -17 0 -20 -7 -20 -40z"/>
<path d="M1400 1740 c0 -13 -7 -20 -20 -20 -19 0 -20 -7 -20 -120 0 -113 1
-120 20 -120 17 0 20 -7 20 -40 0 -33 -3 -40 -20 -40 -18 0 -20 -7 -20 -60 0
-53 -2 -60 -20 -60 -13 0 -20 -7 -20 -20 0 -13 7 -20 20 -20 19 0 20 -7 20
-100 0 -93 1 -100 20 -100 19 0 20 7 20 100 0 93 -1 100 -20 100 -13 0 -20 7
-20 20 0 13 7 20 20 20 18 0 20 7 20 60 0 53 2 60 20 60 17 0 20 7 20 40 0 33
-3 40 -20 40 -19 0 -20 7 -20 120 0 113 1 120 20 120 13 0 20 7 20 20 0 13 -7
20 -20 20 -13 0 -20 -7 -20 -20z"/>
<path d="M1960 1400 c0 -33 3 -40 20 -40 17 0 20 7 20 40 0 33 -3 40 -20 40
-17 0 -20 -7 -20 -40z"/>
<path d="M2440 1400 c0 -33 3 -40 20 -40 17 0 20 7 20 40 0 33 -3 40 -20 40
-17 0 -20 -7 -20 -40z"/>
<path d="M1880 1320 c0 -33 3 -40 20 -40 18 0 20 -7 20 -80 0 -73 2 -80 20
-80 17 0 20 -7 20 -40 0 -33 3 -40 20 -40 18 0 20 -7 20 -80 0 -73 2 -80 20
-80 18 0 20 7 20 80 0 73 -2 80 -20 80 -17 0 -20 7 -20 40 0 33 -3 40 -20 40
-18 0 -20 7 -20 80 0 73 -2 80 -20 80 -17 0 -20 7 -20 40 0 33 -3 40 -20 40
-17 0 -20 -7 -20 -40z"/>
<path d="M2320 1280 c0 -73 -2 -80 -20 -80 -18 0 -20 -7 -20 -60 0 -53 -2 -60
-20 -60 -17 0 -20 -7 -20 -40 0 -33 -3 -40 -20 -40 -18 0 -20 -7 -20 -60 0
-53 2 -60 20 -60 17 0 20 -7 20 -40 0 -33 3 -40 20 -40 17 0 20 7 20 40 0 33
-3 40 -20 40 -18 0 -20 7 -20 60 0 53 2 60 20 60 17 0 20 7 20 40 0 33 3 40
20 40 18 0 20 7 20 60 0 53 2 60 20 60 18 0 20 7 20 80 0 73 -2 80 -20 80 -18
0 -20 -7 -20 -80z"/>
<path d="M440 1260 c0 -53 2 -60 20 -60 18 0 20 7 20 60 0 53 -2 60 -20 60
-18 0 -20 -7 -20 -60z"/>
<path d="M880 1260 c0 -53 2 -60 20 -60 18 0 20 7 20 60 0 53 -2 60 -20 60
-18 0 -20 -7 -20 -60z"/>
<path d="M360 1120 c0 -73 -2 -80 -20 -80 -17 0 -20 -7 -20 -40 0 -33 3 -40
20 -40 18 0 20 -7 20 -60 0 -53 2 -60 20 -60 18 0 20 7 20 60 0 53 -2 60 -20
60 -17 0 -20 7 -20 40 0 33 3 40 20 40 18 0 20 7 20 80 0 73 -2 80 -20 80 -18
0 -20 -7 -20 -80z"/>
<path d="M800 1120 c0 -73 -2 -80 -20 -80 -17 0 -20 -7 -20 -40 0 -33 3 -40
20 -40 18 0 20 -7 20 -60 0 -53 2 -60 20 -60 18 0 20 7 20 60 0 53 -2 60 -20
60 -17 0 -20 7 -20 40 0 33 3 40 20 40 18 0 20 7 20 80 0 73 -2 80 -20 80 -18
0 -20 -7 -20 -80z"/>
<path d="M1440 1020 c0 -13 7 -20 20 -20 13 0 20 7 20 20 0 13 -7 20 -20 20
-13 0 -20 -7 -20 -20z"/>
<path d="M1360 920 c0 -73 2 -80 20 -80 18 0 20 7 20 80 0 73 -2 80 -20 80
-18 0 -20 -7 -20 -80z"/>
<path d="M2080 860 c0 -13 7 -20 20 -20 13 0 20 7 20 20 0 13 -7 20 -20 20
-13 0 -20 -7 -20 -20z"/>
<path d="M720 780 c0 -53 2 -60 20 -60 18 0 20 7 20 60 0 53 -2 60 -20 60 -18
0 -20 -7 -20 -60z"/>
<path d="M1480 780 c0 -53 2 -60 20 -60 13 0 20 -7 20 -20 0 -13 7 -20 20 -20
13 0 20 7 20 20 0 13 -7 20 -20 20 -18 0 -20 7 -20 60 0 53 -2 60 -20 60 -18
0 -20 -7 -20 -60z"/>
<path d="M2160 780 c0 -13 -7 -20 -20 -20 -18 0 -20 -7 -20 -60 0 -53 2 -60
20 -60 18 0 20 -7 20 -60 0 -53 -2 -60 -20 -60 -13 0 -20 -7 -20 -20 0 -13 7
-20 20 -20 13 0 20 7 20 20 0 13 7 20 20 20 18 0 20 7 20 60 0 53 -2 60 -20
60 -18 0 -20 7 -20 60 0 53 2 60 20 60 13 0 20 7 20 20 0 13 -7 20 -20 20 -13
0 -20 -7 -20 -20z"/>
<path d="M640 700 c0 -13 7 -20 20 -20 13 0 20 7 20 20 0 13 -7 20 -20 20 -13
0 -20 -7 -20 -20z"/>
<path d="M2040 420 c0 -53 2 -60 20 -60 18 0 20 7 20 60 0 53 -2 60 -20 60
-18 0 -20 -7 -20 -60z"/>
</g>
</svg>
