<?xml version="1.0" standalone="no"?>
<!DOCTYPE svg PUBLIC "-//W3C//DTD SVG 20010904//EN"
 "http://www.w3.org/TR/2001/REC-SVG-20010904/DTD/svg10.dtd">
<svg version="1.0" xmlns="http://www.w3.org/2000/svg"
 width="225.000000pt" height="225.000000pt" viewBox="0 0 225.000000 225.000000"
 preserveAspectRatio="xMidYMid meet">

<g transform="translate(0.000000,225.000000) scale(0.100000,-0.100000)"
fill="#000000" stroke="none">
<path d="M860 1654 c-25 -14 -63 -36 -85 -49 -22 -12 -93 -53 -157 -91 l-118
-68 0 -59 c0 -32 3 -56 8 -54 4 3 84 48 177 102 94 54 179 104 190 111 11 8
23 14 27 14 4 0 9 -167 10 -371 l3 -370 37 -21 c40 -23 66 -18 117 21 l25 19
-42 21 -42 21 0 374 0 373 -49 26 c-27 15 -50 27 -52 27 -2 0 -24 -12 -49 -26z"/>
<path d="M1265 1654 l-40 -23 -5 -393 -5 -392 -150 -88 c-86 -51 -156 -86
-165 -83 -8 4 -79 43 -157 88 l-142 82 -1 238 c0 130 -3 237 -7 237 -3 0 -26
-11 -50 -25 l-43 -26 0 -224 0 -223 92 -53 c51 -29 141 -81 201 -116 59 -34
111 -63 116 -63 5 0 42 19 83 43 40 24 93 55 118 69 25 14 82 46 128 73 l82
48 0 369 0 369 53 -29 c28 -16 107 -61 175 -100 67 -40 136 -79 152 -87 l30
-16 0 58 0 58 -204 118 c-112 64 -207 117 -212 116 -5 0 -27 -12 -49 -25z"/>
<path d="M1620 1100 l0 -219 -108 -65 c-174 -103 -190 -109 -222 -96 -25 10
-34 8 -74 -15 -25 -15 -46 -28 -46 -30 0 -4 138 -85 146 -85 4 0 98 53 210
117 l204 117 0 222 0 222 -44 26 c-25 14 -49 26 -55 26 -8 0 -11 -70 -11 -220z"/>
</g>
</svg>
